<svg version="1" xmlns="http://www.w3.org/2000/svg" width="933.333" height="933.333" viewBox="0 0 700.000000 700.000000"><path d="M326.9.4c-.2.2-4.2.7-8.9 1-4.7.3-9.6.8-11 1-1.4.2-4.6.7-7.1 1C220.3 14.3 144 55.2 89 116.6 51.9 157.9 23.9 210.5 10.5 264c-2.4 9.6-6 27.5-6.9 34-.2 1.9-1 8-1.8 13.5-1.4 11.2-1.8 60.6-.5 72 .4 3.8 1.5 11.7 2.3 17.5C18.8 505.9 81.8 598.9 174 652.7c10.4 6.1 28.6 15.3 36 18.3 3 1.2 6.9 2.9 8.7 3.7 22.4 9.8 61 19.6 89.8 22.9 2.8.3 6.1.8 7.5 1.1 4.5.9 55.3 1.1 63.1.3 4.2-.4 10.5-1.1 14-1.5 3.5-.4 12.5-1.8 19.9-3.1 136.7-25 246.3-129.3 277.8-264.4 2.7-11.6 3.3-14.2 4.6-22.5 3.6-21.8 4.1-30 4.1-60-.1-30.6-1.9-47.7-8.1-75.5-2.8-12.4-3.8-15.8-9.2-32.5-24.3-75.2-77.7-143.1-146.4-186.4-5.4-3.3-10-6.1-10.3-6.1-.3 0-2.4-1.2-4.6-2.6-12.5-7.8-41.7-20.7-62.3-27.3C446 13 422 6.9 413 5.5c-2.5-.4-5.4-.9-6.5-1.1-1.1-.3-5.6-.9-10-1.4-4.4-.6-9.6-1.3-11.5-1.6-4.2-.6-57.5-1.6-58.1-1z"/></svg>